<?xml version="1.0" encoding="UTF-8" standalone="no"?>
<svg
   xmlns:dc="http://purl.org/dc/elements/1.1/"
   xmlns:cc="http://creativecommons.org/ns#"
   xmlns:rdf="http://www.w3.org/1999/02/22-rdf-syntax-ns#"
   xmlns:svg="http://www.w3.org/2000/svg"
   xmlns="http://www.w3.org/2000/svg"
   xmlns:sodipodi="http://sodipodi.sourceforge.net/DTD/sodipodi-0.dtd"
   xmlns:inkscape="http://www.inkscape.org/namespaces/inkscape"
   inkscape:version="1.0 (4035a4fb49, 2020-05-01)"
   height="40"
   width="40"
   sodipodi:docname="bin.svg"
   xml:space="preserve"
   viewBox="0 0 40 40"
   y="0px"
   x="0px"
   id="Capa_1"
   version="1.1"><metadata
   id="metadata61"><rdf:RDF><cc:Work
       rdf:about=""><dc:format>image/svg+xml</dc:format><dc:type
         rdf:resource="http://purl.org/dc/dcmitype/StillImage" /><dc:title></dc:title></cc:Work></rdf:RDF></metadata><defs
   id="defs59" /><sodipodi:namedview
   inkscape:current-layer="Capa_1"
   inkscape:window-maximized="1"
   inkscape:window-y="-8"
   inkscape:window-x="-8"
   inkscape:cy="22.766174"
   inkscape:cx="8.43345"
   inkscape:zoom="6.7811837"
   showgrid="false"
   id="namedview57"
   inkscape:window-height="1017"
   inkscape:window-width="1920"
   inkscape:pageshadow="2"
   inkscape:pageopacity="0"
   guidetolerance="10"
   gridtolerance="10"
   objecttolerance="10"
   borderopacity="1"
   bordercolor="#666666"
   pagecolor="#ffffff" />



<g
   style="stroke-width:14.5574;stroke-miterlimit:4;stroke-dasharray:none"
   transform="matrix(0.07686309,0,0,0.07686309,-3.6776857e-7,2.0645368)"
   id="g898"><g
     id="g6"
     transform="translate(0,-21.336)"
     style="fill:#a6a5a5;fill-opacity:1;stroke-width:14.5574;stroke-miterlimit:4;stroke-dasharray:none">
	<g
   id="g4"
   style="fill:#a6a5a5;fill-opacity:1;stroke-width:14.5574;stroke-miterlimit:4;stroke-dasharray:none">
		<path
   d="m 394.667,384.002 c -29.397,0 -53.333,23.936 -53.333,53.333 0,29.397 23.936,53.333 53.333,53.333 29.397,0 53.333,-23.935 53.333,-53.332 0,-29.397 -23.936,-53.334 -53.333,-53.334 z m 0,85.334 c -17.643,0 -32,-14.357 -32,-32 0,-17.643 14.357,-32 32,-32 17.643,0 32,14.357 32,32 0,17.642 -14.358,32 -32,32 z"
   id="path2"
   style="fill:#a6a5a5;fill-opacity:1;stroke-width:14.5574;stroke-miterlimit:4;stroke-dasharray:none" />
	</g>
</g><g
     id="g12"
     transform="translate(0,-21.336)"
     style="fill:#a6a5a5;fill-opacity:1;stroke-width:14.5574;stroke-miterlimit:4;stroke-dasharray:none">
	<g
   id="g10"
   style="fill:#a6a5a5;fill-opacity:1;stroke-width:14.5574;stroke-miterlimit:4;stroke-dasharray:none">
		<path
   d="m 181.333,384.002 c -29.397,0 -53.333,23.936 -53.333,53.333 0,29.397 23.936,53.333 53.333,53.333 29.397,0 53.333,-23.936 53.333,-53.333 0,-29.397 -23.935,-53.333 -53.333,-53.333 z m 0,85.334 c -17.643,0 -32,-14.357 -32,-32 0,-17.643 14.357,-32 32,-32 17.643,0 32,14.357 32,32 0,17.642 -14.357,32 -32,32 z"
   id="path8"
   style="fill:#a6a5a5;fill-opacity:1;stroke-width:14.5574;stroke-miterlimit:4;stroke-dasharray:none" />
	</g>
</g><g
     id="g18"
     transform="translate(0,-21.336)"
     style="fill:#a6a5a5;fill-opacity:1;stroke-width:14.5574;stroke-miterlimit:4;stroke-dasharray:none">
	<g
   id="g16"
   style="fill:#a6a5a5;fill-opacity:1;stroke-width:14.5574;stroke-miterlimit:4;stroke-dasharray:none">
		<path
   d="M 458.667,341.336 H 191.125 c -25.323,0 -47.317,-18.027 -52.288,-42.88 L 85.12,29.912 C 84.117,24.92 79.744,21.336 74.667,21.336 h -64 C 4.779,21.336 0,26.114 0,32.002 0,37.89 4.779,42.669 10.667,42.669 H 65.92 l 51.989,259.989 c 6.955,34.773 37.76,60.011 73.216,60.011 h 267.541 c 5.888,0 10.667,-4.779 10.667,-10.667 0,-5.888 -4.778,-10.666 -10.666,-10.666 z"
   id="path14"
   style="fill:#a6a5a5;fill-opacity:1;stroke-width:14.5574;stroke-miterlimit:4;stroke-dasharray:none" />
	</g>
</g><g
     id="g24"
     transform="translate(0,-21.336)"
     style="fill:#a6a5a5;fill-opacity:1;stroke-width:14.5574;stroke-miterlimit:4;stroke-dasharray:none">
	<g
   id="g22"
   style="fill:#a6a5a5;fill-opacity:1;stroke-width:14.5574;stroke-miterlimit:4;stroke-dasharray:none">
		<path
   d="m 509.397,89.005 c -2.027,-2.325 -4.971,-3.669 -8.064,-3.669 H 96 c -5.888,0 -10.667,4.779 -10.667,10.667 0,5.888 4.779,10.666 10.667,10.666 h 393.024 l -17.237,120.939 c -0.683,4.779 -4.501,8.512 -9.28,9.088 L 126.741,277.4 c -5.867,0.725 -10.027,6.037 -9.323,11.883 0.661,5.419 5.248,9.387 10.581,9.387 0.427,0 0.853,-0.021 1.28,-0.064 l 335.765,-40.725 c 14.336,-1.749 25.771,-12.949 27.819,-27.243 L 511.892,97.497 c 0.449,-3.052 -0.468,-6.167 -2.495,-8.492 z"
   id="path20"
   style="fill:#a6a5a5;fill-opacity:1;stroke-width:14.5574;stroke-miterlimit:4;stroke-dasharray:none" />
	</g>
</g></g>
<g
   transform="translate(0,-21.336)"
   id="g26">
</g>
<g
   transform="translate(0,-21.336)"
   id="g28">
</g>
<g
   transform="translate(0,-21.336)"
   id="g30">
</g>
<g
   transform="translate(0,-21.336)"
   id="g32">
</g>
<g
   transform="translate(0,-21.336)"
   id="g34">
</g>
<g
   transform="translate(0,-21.336)"
   id="g36">
</g>
<g
   transform="translate(0,-21.336)"
   id="g38">
</g>
<g
   transform="translate(0,-21.336)"
   id="g40">
</g>
<g
   transform="translate(0,-21.336)"
   id="g42">
</g>
<g
   transform="translate(0,-21.336)"
   id="g44">
</g>
<g
   transform="translate(0,-21.336)"
   id="g46">
</g>
<g
   transform="translate(0,-21.336)"
   id="g48">
</g>
<g
   transform="translate(0,-21.336)"
   id="g50">
</g>
<g
   transform="translate(0,-21.336)"
   id="g52">
</g>
<g
   transform="translate(0,-21.336)"
   id="g54">
</g>
</svg>
