<?xml version="1.0" encoding="UTF-8" standalone="no"?>
<svg
   xmlns:dc="http://purl.org/dc/elements/1.1/"
   xmlns:cc="http://creativecommons.org/ns#"
   xmlns:rdf="http://www.w3.org/1999/02/22-rdf-syntax-ns#"
   xmlns:svg="http://www.w3.org/2000/svg"
   xmlns="http://www.w3.org/2000/svg"
   xmlns:sodipodi="http://sodipodi.sourceforge.net/DTD/sodipodi-0.dtd"
   xmlns:inkscape="http://www.inkscape.org/namespaces/inkscape"
   inkscape:version="1.0 (4035a4fb49, 2020-05-01)"
   sodipodi:docname="ic_menu.svg"
   version="1.1"
   width="61.291489"
   viewBox="0 0 61.291489 45.904694"
   height="45.904694"
   enable-background="new 0 0 512 512"
   id="Layer_1">
  <metadata
     id="metadata13">
    <rdf:RDF>
      <cc:Work
         rdf:about="">
        <dc:format>image/svg+xml</dc:format>
        <dc:type
           rdf:resource="http://purl.org/dc/dcmitype/StillImage" />
        <dc:title />
      </cc:Work>
    </rdf:RDF>
  </metadata>
  <defs
     id="defs11" />
  <sodipodi:namedview
     inkscape:current-layer="g841"
     inkscape:window-maximized="1"
     inkscape:window-y="-8"
     inkscape:window-x="-8"
     inkscape:cy="0.63434648"
     inkscape:cx="63.051704"
     inkscape:zoom="6.78125"
     showgrid="false"
     id="namedview9"
     inkscape:window-height="1017"
     inkscape:window-width="1920"
     inkscape:pageshadow="2"
     inkscape:pageopacity="0"
     guidetolerance="10"
     gridtolerance="10"
     objecttolerance="10"
     borderopacity="1"
     bordercolor="#666666"
     pagecolor="#ffffff"
     inkscape:document-rotation="0" />
  <g
     style="fill:#ffffff;fill-opacity:1"
     transform="matrix(0.11970994,0,0,0.11970994,0,-7.6933987)"
     id="g841">
    <g
       style="fill:#ffffff;fill-opacity:1"
       id="g891"
       transform="matrix(0.11094931,0,0,0.11945703,-128.34223,226.61786)">
      <path
         style="fill:#ffffff;fill-opacity:1;stroke-width:11.138"
         d="M 5407.3741,429.99586 H 1486.7865 c -98.3715,0 -178.2086,-79.8371 -178.2086,-178.2085 0,-98.3715 79.8371,-178.2086 178.2086,-178.2086 h 3920.5876 c 98.3715,0 178.2086,79.8371 178.2086,178.2086 0,98.3714 -79.8371,178.2085 -178.2086,178.2085 z m 0,0"
         id="path2-9" />
      <path
         style="fill:#ffffff;fill-opacity:1;stroke-width:11.138"
         d="M 5407.3741,-936.2841 H 1486.7865 c -98.3715,0 -178.2086,-79.837 -178.2086,-178.2085 0,-98.3715 79.8371,-178.2085 178.2086,-178.2085 h 3920.5876 c 98.3715,0 178.2086,79.837 178.2086,178.2085 0,98.3715 -79.8371,178.2085 -178.2086,178.2085 z m 0,0"
         id="path4-0" />
      <path
         style="fill:#ffffff;fill-opacity:1;stroke-width:11.138"
         d="M 5407.3741,1796.2323 H 1486.7865 c -98.3715,0 -178.2086,-79.8371 -178.2086,-178.2085 0,-98.3715 79.8371,-178.2085 178.2086,-178.2085 h 3920.5876 c 98.3715,0 178.2086,79.837 178.2086,178.2085 0,98.3714 -79.8371,178.2085 -178.2086,178.2085 z m 0,0"
         id="path6-3" />
    </g>
  </g>
</svg>
