<?xml version="1.0" encoding="UTF-8" standalone="no"?>
<svg
   xmlns:dc="http://purl.org/dc/elements/1.1/"
   xmlns:cc="http://creativecommons.org/ns#"
   xmlns:rdf="http://www.w3.org/1999/02/22-rdf-syntax-ns#"
   xmlns:svg="http://www.w3.org/2000/svg"
   xmlns="http://www.w3.org/2000/svg"
   xmlns:sodipodi="http://sodipodi.sourceforge.net/DTD/sodipodi-0.dtd"
   xmlns:inkscape="http://www.inkscape.org/namespaces/inkscape"
   inkscape:version="1.0 (4035a4fb49, 2020-05-01)"
   sodipodi:docname="vector.svg"
   version="1.1"
   id="vector"
   viewBox="0 0 24 24">
  <metadata
     id="metadata8">
    <rdf:RDF>
      <cc:Work
         rdf:about="">
        <dc:format>image/svg+xml</dc:format>
        <dc:type
           rdf:resource="http://purl.org/dc/dcmitype/StillImage" />
      </cc:Work>
    </rdf:RDF>
  </metadata>
  <defs
     id="defs6" />
  <sodipodi:namedview
     inkscape:current-layer="vector"
     inkscape:window-maximized="1"
     inkscape:window-y="-8"
     inkscape:window-x="-8"
     inkscape:cy="11.253071"
     inkscape:cx="7.3010373"
     inkscape:zoom="18.083333"
     showgrid="false"
     id="namedview4"
     inkscape:window-height="1017"
     inkscape:window-width="1920"
     inkscape:pageshadow="2"
     inkscape:pageopacity="0"
     guidetolerance="10"
     gridtolerance="10"
     objecttolerance="10"
     borderopacity="1"
     bordercolor="#666666"
     pagecolor="#ffffff" />
  <path
     style="fill:#000000;fill-opacity:1"
     fill="none"
     d="M 15.5 14 L 14.71 14 L 14.43 13.73 C 15.41 12.59 16 11.11 16 9.5 C 16 5.91 13.09 3 9.5 3 C 5.91 3 3 5.91 3 9.5 C 3 13.09 5.91 16 9.5 16 C 11.11 16 12.59 15.41 13.73 14.43 L 14 14.71 L 14 15.5 L 19 20.49 L 20.49 19 L 15.5 14 Z M 9.5 14 C 7.01 14 5 11.99 5 9.5 C 5 7.01 7.01 5 9.5 5 C 11.99 5 14 7.01 14 9.5 C 14 11.99 11.99 14 9.5 14 Z"
     id="path" />
</svg>
