<?xml version="1.0" encoding="UTF-8" standalone="no"?>
<svg
   xmlns:dc="http://purl.org/dc/elements/1.1/"
   xmlns:cc="http://creativecommons.org/ns#"
   xmlns:rdf="http://www.w3.org/1999/02/22-rdf-syntax-ns#"
   xmlns:svg="http://www.w3.org/2000/svg"
   xmlns="http://www.w3.org/2000/svg"
   xmlns:sodipodi="http://sodipodi.sourceforge.net/DTD/sodipodi-0.dtd"
   xmlns:inkscape="http://www.inkscape.org/namespaces/inkscape"
   height="55.126049pt"
   viewBox="0 0 55.01596 55.126049"
   width="55.123623pt"
   version="1.1"
   id="svg4"
   sodipodi:docname="ic_userPanel.svg"
   inkscape:version="1.0 (4035a4fb49, 2020-05-01)">
  <metadata
     id="metadata10">
    <rdf:RDF>
      <cc:Work
         rdf:about="">
        <dc:format>image/svg+xml</dc:format>
        <dc:type
           rdf:resource="http://purl.org/dc/dcmitype/StillImage" />
        <dc:title />
      </cc:Work>
    </rdf:RDF>
  </metadata>
  <defs
     id="defs8" />
  <sodipodi:namedview
     inkscape:document-rotation="0"
     pagecolor="#ffffff"
     bordercolor="#666666"
     borderopacity="1"
     objecttolerance="10"
     gridtolerance="10"
     guidetolerance="10"
     inkscape:pageopacity="0"
     inkscape:pageshadow="2"
     inkscape:window-width="1920"
     inkscape:window-height="1017"
     id="namedview6"
     showgrid="false"
     inkscape:zoom="5.0859375"
     inkscape:cx="36.558841"
     inkscape:cy="33.418624"
     inkscape:window-x="-8"
     inkscape:window-y="-8"
     inkscape:window-maximized="1"
     inkscape:current-layer="svg4" />
  <path
     style="fill:#ffffff;fill-opacity:1;stroke-width:0.1022"
     d="m 27.781919,27.060917 c 3.462791,0 6.461298,-1.241963 8.911283,-3.692345 2.449987,-2.449985 3.691946,-5.447692 3.691946,-8.910885 0,-3.461994 -1.241959,-6.460103 -3.692345,-8.9108842 -2.450382,-2.4495856 -5.448492,-3.6915446 -8.910884,-3.6915446 -3.463195,0 -6.460905,1.241959 -8.910888,3.6919436 -2.449983,2.4499846 -3.692341,5.4480922 -3.692341,8.9104852 0,3.463193 1.242358,6.461301 3.692743,8.911285 2.450382,2.449587 5.448487,3.691945 8.910486,3.691945 z m 0,0"
     id="path2-2" />
  <path
     style="fill:#ffffff;fill-opacity:1;stroke-width:0.1022"
     d="m 49.834168,42.091371 c -0.07066,-1.019595 -0.213571,-2.131809 -0.423964,-3.306301 -0.212381,-1.183269 -0.485845,-2.301872 -0.813195,-3.324262 -0.338144,-1.056727 -0.798033,-2.100277 -1.366521,-3.100304 -0.590033,-1.03796 -1.28308,-1.941786 -2.060743,-2.685522 -0.813209,-0.778076 -1.808846,-1.403644 -2.960187,-1.85995 -1.147343,-0.453908 -2.418842,-0.683857 -3.778971,-0.683857 -0.534151,0 -1.050734,0.219169 -2.048371,0.868698 -0.613993,0.400416 -1.332184,0.863504 -2.133809,1.375693 -0.685451,0.436738 -1.614027,0.845941 -2.760974,1.216412 -1.118998,0.36209 -2.255164,0.545726 -3.376562,0.545726 -1.121393,0 -2.257165,-0.183636 -3.377363,-0.545726 -1.145748,-0.370076 -2.074324,-0.779269 -2.75898,-1.216009 -0.794037,-0.507406 -1.512622,-0.970497 -2.135797,-1.3765 -0.996444,-0.649521 -1.513425,-0.86869 -2.047576,-0.86869 -1.360528,0 -2.631629,0.230345 -3.778573,0.684656 -1.150539,0.455499 -2.146579,1.081076 -2.96058,1.85994 -0.777271,0.744143 -1.4707126,1.647562 -2.0599524,2.685129 -0.568083,1.000027 -1.0279774,2.043181 -1.3665165,3.100698 -0.3269566,1.02239 -0.6004189,2.140599 -0.8128017,3.323868 -0.2103834,1.172892 -0.3533062,2.285511 -0.423966,3.307495 -0.069469,1.001233 -0.1045947,2.040397 -0.1045947,3.089929 0,2.731431 0.8682925,4.942689 2.580527,6.573478 1.6910773,1.609246 3.9286793,2.425639 6.6497313,2.425639 h 25.195276 c 2.721056,0 4.957855,-0.815998 6.649332,-2.425639 1.712631,-1.629595 2.58093,-3.841248 2.58093,-6.573873 -3.91e-4,-1.05433 -0.03598,-2.094284 -0.10577,-3.090728 z m 0,0"
     id="path4" />
</svg>
