<?xml version="1.0" encoding="UTF-8" standalone="no"?>
<svg
   xmlns:dc="http://purl.org/dc/elements/1.1/"
   xmlns:cc="http://creativecommons.org/ns#"
   xmlns:rdf="http://www.w3.org/1999/02/22-rdf-syntax-ns#"
   xmlns:svg="http://www.w3.org/2000/svg"
   xmlns="http://www.w3.org/2000/svg"
   xmlns:sodipodi="http://sodipodi.sourceforge.net/DTD/sodipodi-0.dtd"
   xmlns:inkscape="http://www.inkscape.org/namespaces/inkscape"
   version="1.1"
   id="Capa_1"
   x="0px"
   y="0px"
   viewBox="0 0 480.06915 482.2713"
   xml:space="preserve"
   sodipodi:docname="unbookmark.svg"
   width="480.06915"
   height="482.2713"
   inkscape:version="1.0 (4035a4fb49, 2020-05-01)"><metadata
   id="metadata49"><rdf:RDF><cc:Work
       rdf:about=""><dc:format>image/svg+xml</dc:format><dc:type
         rdf:resource="http://purl.org/dc/dcmitype/StillImage" /></cc:Work></rdf:RDF></metadata><defs
   id="defs47" /><sodipodi:namedview
   inkscape:document-rotation="0"
   pagecolor="#ffffff"
   bordercolor="#666666"
   borderopacity="1"
   objecttolerance="10"
   gridtolerance="10"
   guidetolerance="10"
   inkscape:pageopacity="0"
   inkscape:pageshadow="2"
   inkscape:window-width="1920"
   inkscape:window-height="1017"
   id="namedview45"
   showgrid="false"
   inkscape:zoom="0.45410124"
   inkscape:cx="-3.2669509"
   inkscape:cy="287.61366"
   inkscape:window-x="-8"
   inkscape:window-y="-8"
   inkscape:window-maximized="1"
   inkscape:current-layer="layer1" />


<g
   id="g14"
   transform="translate(-170.66678,172.86892)">
</g>
<g
   id="g16"
   transform="translate(-170.66678,172.86892)">
</g>
<g
   id="g18"
   transform="translate(-170.66678,172.86892)">
</g>
<g
   id="g20"
   transform="translate(-170.66678,172.86892)">
</g>
<g
   id="g22"
   transform="translate(-170.66678,172.86892)">
</g>
<g
   id="g24"
   transform="translate(-170.66678,172.86892)">
</g>
<g
   id="g26"
   transform="translate(-170.66678,172.86892)">
</g>
<g
   id="g28"
   transform="translate(-170.66678,172.86892)">
</g>
<g
   id="g30"
   transform="translate(-170.66678,172.86892)">
</g>
<g
   id="g32"
   transform="translate(-170.66678,172.86892)">
</g>
<g
   id="g34"
   transform="translate(-170.66678,172.86892)">
</g>
<g
   id="g36"
   transform="translate(-170.66678,172.86892)">
</g>
<g
   id="g38"
   transform="translate(-170.66678,172.86892)">
</g>
<g
   id="g40"
   transform="translate(-170.66678,172.86892)">
</g>
<g
   id="g42"
   transform="translate(-170.66678,172.86892)">
</g>
<g
   inkscape:groupmode="layer"
   id="layer1"
   inkscape:label="Layer 1"
   transform="translate(-170.66678,172.86892)"><ellipse
     style="fill:#3f4550;fill-opacity:1;stroke:none;stroke-width:2.77896;stroke-linejoin:round"
     id="path882-9"
     cx="410.70135"
     cy="68.266731"
     rx="240.03458"
     ry="241.13565" /><g
     style="fill:#c7cddc;fill-opacity:1"
     transform="matrix(0.64731158,0,0,0.64731158,247.19176,-97.15258)"
     id="g6-2-0"><g
       style="fill:#c7cddc;fill-opacity:1"
       id="g4-3-9-8"><path
         style="fill:#c7cddc;fill-opacity:1"
         d="M 256,0 C 114.853,0 0,114.833 0,256 0,397.167 114.853,512 256,512 397.167,512 512,397.167 512,256 512,114.833 397.147,0 256,0 Z m 0,472.341 C 136.705,472.341 39.659,375.295 39.659,256 39.659,136.705 136.705,39.659 256,39.659 c 119.295,0 216.341,97.046 216.341,216.341 0,119.295 -97.046,216.341 -216.341,216.341 z"
         id="path2-4-9" /></g></g><g
     style="fill:#c7cddc;fill-opacity:1"
     transform="matrix(0.64731158,0,0,0.64731158,247.19176,-97.15258)"
     id="g12-7-7"><g
       style="fill:#c7cddc;fill-opacity:1"
       id="g10-9-8"><path
         style="fill:#c7cddc;fill-opacity:1"
         d="M 355.148,234.386 H 156.852 c -10.946,0 -19.83,8.884 -19.83,19.83 0,10.946 8.884,19.83 19.83,19.83 h 198.296 c 10.946,0 19.83,-8.884 19.83,-19.83 0,-10.946 -8.884,-19.83 -19.83,-19.83 z"
         id="path8-3" /></g></g></g></svg>
