<?xml version="1.0" encoding="UTF-8" standalone="no"?>
<svg
   xmlns:dc="http://purl.org/dc/elements/1.1/"
   xmlns:cc="http://creativecommons.org/ns#"
   xmlns:rdf="http://www.w3.org/1999/02/22-rdf-syntax-ns#"
   xmlns:svg="http://www.w3.org/2000/svg"
   xmlns="http://www.w3.org/2000/svg"
   xmlns:sodipodi="http://sodipodi.sourceforge.net/DTD/sodipodi-0.dtd"
   xmlns:inkscape="http://www.inkscape.org/namespaces/inkscape"
   height="55.126049pt"
   viewBox="0 0 55.01596 55.126049"
   width="55.123623pt"
   version="1.1"
   id="svg4"
   sodipodi:docname="userMenu.svg"
   inkscape:version="1.0 (4035a4fb49, 2020-05-01)">
  <metadata
     id="metadata10">
    <rdf:RDF>
      <cc:Work
         rdf:about="">
        <dc:format>image/svg+xml</dc:format>
        <dc:type
           rdf:resource="http://purl.org/dc/dcmitype/StillImage" />
        <dc:title />
      </cc:Work>
    </rdf:RDF>
  </metadata>
  <defs
     id="defs8" />
  <sodipodi:namedview
     inkscape:document-rotation="0"
     pagecolor="#ffffff"
     bordercolor="#666666"
     borderopacity="1"
     objecttolerance="10"
     gridtolerance="10"
     guidetolerance="10"
     inkscape:pageopacity="0"
     inkscape:pageshadow="2"
     inkscape:window-width="1920"
     inkscape:window-height="1017"
     id="namedview6"
     showgrid="false"
     inkscape:zoom="5.0859375"
     inkscape:cx="-20.294993"
     inkscape:cy="16.435053"
     inkscape:window-x="-8"
     inkscape:window-y="-8"
     inkscape:window-maximized="1"
     inkscape:current-layer="svg4" />
  <path
     d="m 38.805669,42.205876 v 4.30672 c 0,4.74959 -3.863863,8.613452 -8.613453,8.613452 H 8.5509524 c -4.7496043,0 -8.6134524,-3.863862 -8.6134524,-8.613452 V 8.6134531 C -0.0625,3.8638626 3.8013481,0 8.5509524,0 H 30.192216 c 4.74959,0 8.613453,3.8638626 8.613453,8.6134531 v 4.3067189 c 0,1.189391 -0.96397,2.15336 -2.15336,2.15336 -1.189404,0 -2.15336,-0.963969 -2.15336,-2.15336 V 8.6134531 c 0,-2.37459 -1.932144,-4.3067336 -4.306733,-4.3067336 H 8.5509524 c -2.374589,0 -4.3067336,1.9321436 -4.3067336,4.3067336 V 46.512596 c 0,2.374589 1.9321446,4.306733 4.3067336,4.306733 H 30.192216 c 2.374589,0 4.306733,-1.932144 4.306733,-4.306733 v -4.30672 c 0,-1.18939 0.963956,-2.15336 2.15336,-2.15336 1.18939,0 2.15336,0.96397 2.15336,2.15336 z M 53.486796,23.864043 48.66486,19.042107 c -0.841157,-0.841158 -2.204664,-0.841158 -3.045409,0 -0.841158,0.840731 -0.841158,2.204251 0,3.044983 l 3.429815,3.430241 H 23.193803 c -1.189404,0 -2.153359,0.96397 -2.153359,2.15336 0,1.18939 0.963955,2.15336 2.153359,2.15336 h 25.855463 l -3.429815,3.430241 c -0.841158,0.840731 -0.841158,2.204252 0,3.044983 0.420578,0.420579 0.971542,0.630868 1.522491,0.630868 0.55139,0 1.102339,-0.210289 1.522918,-0.630868 l 4.821936,-4.821922 c 2.0991,-2.099114 2.0991,-5.51421 0,-7.61331 z m 0,0"
     id="path2"
     style="fill:#ffffff;fill-opacity:1;stroke-width:0.107668" />
</svg>
